<svg xmlns="http://www.w3.org/2000/svg" enable-background="new 0 0 24 24" id="Filled_Icons" version="1.1" viewBox="0 0 24 24" x="0px" y="0px" xml:space="preserve">
<path fill="#28CD41" d="M19.647,3.384C17.479,1.207,14.595,0.006,11.5,0C5.171,0,0.013,5.148,0.001,11.477c-0.006,3.072,1.184,5.962,3.352,8.139  c2.168,2.176,5.054,3.378,8.126,3.384h0.023C17.829,23,22.988,17.851,23,11.521C23.006,8.45,21.815,5.56,19.647,3.384z M11.501,22.5  L11.501,22.5L11.501,22.5L11.501,22.5z M17.5,12.012v-0.006L12,12v5.5c0,0.276-0.225,0.5-0.5,0.5c-0.276,0-0.5-0.224-0.5-0.5v-5.495  L5.499,12c-0.276-0.001-0.5-0.225-0.499-0.501C5,11.224,5.224,11,5.5,11v-0.005L11,11V5.5C11,5.224,11.224,5,11.5,5  C11.775,5,12,5.224,12,5.5v5.494L17.501,11c0.275,0.012,0.5,0.235,0.499,0.512C18,11.788,17.776,12.012,17.5,12.012z"></path>
</svg>