<svg xmlns="http://www.w3.org/2000/svg" enable-background="new 0 0 24 24" id="Filled_Icons" version="1.1" viewBox="0 0 24 24" x="0px" y="0px" xml:space="preserve">
<path fill="#FF3B30" d="M11.499,0C5.17,0,0.012,5.148,0,11.477c-0.006,3.072,1.184,5.962,3.352,8.139c2.168,2.176,5.054,3.378,8.126,3.384H11.5  c6.328,0,11.487-5.149,11.5-11.479C23.012,5.181,17.863,0.012,11.499,0z M11.5,22.5L11.5,22.5L11.5,22.5L11.5,22.5z M17.499,12.012  L5.499,12c-0.276-0.001-0.5-0.225-0.499-0.501C5,11.224,5.224,11,5.5,11v-0.012L17.5,11c0.276,0.012,0.5,0.235,0.5,0.512  C17.999,11.788,17.499,12.012,17.499,12.012z"></path>
</svg>